<svg xmlns="http://www.w3.org/2000/svg" width="1120" height="620" viewBox="0 0 1120 620" role="img" aria-labelledby="title desc">
  <title id="title">AEGIS Q-SRE Control Plane Architecture</title>
  <desc id="desc">Simplified simulation architecture showing telemetry ingestion, control-plane filtering, governance, QOM frame emission, and artifacts.</desc>
  <defs>
    <style>
      .bg { fill: #101418; }
      .box { fill: #18212a; stroke: #5d7488; stroke-width: 2; rx: 8; }
      .accent { fill: #173327; stroke: #36d17d; stroke-width: 2; rx: 8; }
      .warn { fill: #332716; stroke: #f2b84b; stroke-width: 2; rx: 8; }
      .text { fill: #f4f4f4; font-family: Segoe UI, Arial, sans-serif; font-size: 18px; }
      .small { fill: #c7d0d8; font-family: Segoe UI, Arial, sans-serif; font-size: 14px; }
      .arrow { stroke: #8fb6c8; stroke-width: 3; fill: none; marker-end: url(#arrow); }
    </style>
    <marker id="arrow" markerWidth="10" markerHeight="10" refX="8" refY="3" orient="auto">
      <path d="M0,0 L0,6 L9,3 z" fill="#8fb6c8"/>
    </marker>
  </defs>
  <rect class="bg" x="0" y="0" width="1120" height="620"/>
  <text class="text" x="40" y="46">AEGIS Q-SRE Control Plane Simulation</text>
  <text class="small" x="40" y="74">Reliability governance around probabilistic telemetry. Not a physical quantum operating system.</text>

  <rect class="box" x="40" y="120" width="230" height="110"/>
  <text class="text" x="64" y="155">Telemetry Sources</text>
  <text class="small" x="64" y="183">environment vectors</text>
  <text class="small" x="64" y="205">node reports, Qiskit bridge</text>

  <rect class="box" x="330" y="110" width="270" height="130"/>
  <text class="text" x="354" y="146">Signal Processing</text>
  <text class="small" x="354" y="176">wrapped-delta phase unwrapping</text>
  <text class="small" x="354" y="198">Taylor projection</text>
  <text class="small" x="354" y="220">weighted vector fusion</text>

  <rect class="accent" x="660" y="110" width="300" height="130"/>
  <text class="text" x="684" y="146">Governance Control Plane</text>
  <text class="small" x="684" y="176">kappa trust vectors</text>
  <text class="small" x="684" y="198">BFT-style filtering</text>
  <text class="small" x="684" y="220">fail-closed state machine</text>

  <rect class="warn" x="120" y="330" width="270" height="130"/>
  <text class="text" x="144" y="366">Artifacts</text>
  <text class="small" x="144" y="396">JSON reports</text>
  <text class="small" x="144" y="418">forensic certificates</text>
  <text class="small" x="144" y="440">reviewer-mode output</text>

  <rect class="box" x="460" y="330" width="270" height="130"/>
  <text class="text" x="484" y="366">.QOM Frame</text>
  <text class="small" x="484" y="396">176-bit compact payload</text>
  <text class="small" x="484" y="418">OPTE policy hash</text>
  <text class="small" x="484" y="440">Merkle lineage root</text>

  <rect class="box" x="800" y="330" width="250" height="130"/>
  <text class="text" x="824" y="366">Live Monitor</text>
  <text class="small" x="824" y="396">graphs, controls, themes</text>
  <text class="small" x="824" y="418">Qiskit run/stop/export</text>
  <text class="small" x="824" y="440">forensic ticker</text>

  <path class="arrow" d="M270 175 H330"/>
  <path class="arrow" d="M600 175 H660"/>
  <path class="arrow" d="M810 240 V330"/>
  <path class="arrow" d="M690 240 L595 330"/>
  <path class="arrow" d="M530 240 L255 330"/>
</svg>
